<?xml version="1.0" encoding="utf-8"?>
<!-- Generator: Adobe Illustrator 24.0.0, SVG Export Plug-In . SVG Version: 6.00 Build 0)  -->
<svg version="1.1" id="Layer_1" xmlns="http://www.w3.org/2000/svg" xmlns:xlink="http://www.w3.org/1999/xlink" x="0px" y="0px"
	 viewBox="0 0 100 100" style="enable-background:new 0 0 100 100;" xml:space="preserve">
<style type="text/css">
	.st0{fill:#1B75BC;}
	.st1{fill:#262262;}
</style>
<path class="st0" d="M70.7,34.16c-3.13,3.55-6.18,7-9.23,10.45c-3.12,3.54-6.24,7.07-9.35,10.61c-0.17,0.19-0.35,0.25-0.6,0.29
	c-0.97,0.16-1.56-0.3-2.18-1c-5.92-6.68-11.87-13.33-17.81-19.99c-0.07-0.08-0.15-0.16-0.24-0.26c-0.13,0.18-0.07,0.37-0.07,0.54
	c0,13.9,0,27.81,0,41.71c0,0.61,0,0.61-0.63,0.61c-2.56,0-5.13-0.01-7.69,0.01c-0.44,0-0.5-0.13-0.5-0.52
	c0.01-18.09,0.01-36.17,0-54.26c0-0.4,0.08-0.53,0.51-0.53c2.47,0.02,4.94,0.02,7.41,0c0.31,0,0.52,0.1,0.72,0.33
	c6.44,7.19,12.88,14.37,19.32,21.55c0.73,0.82,0.72,0.81,1.45,0c5.58-6.26,11.17-12.53,16.75-18.79c0.84-0.94,1.68-1.87,2.51-2.82
	c0.17-0.2,0.35-0.27,0.6-0.27c2.47,0.01,4.94,0.02,7.41,0c0.39,0,0.46,0.12,0.46,0.48c-0.01,18.12-0.01,36.24,0,54.35
	c0,0.35-0.07,0.48-0.45,0.47c-2.64-0.02-5.28-0.02-7.93,0c-0.41,0-0.48-0.13-0.48-0.5c0.01-13.95,0.01-27.9,0.01-41.85
	C70.7,34.61,70.7,34.44,70.7,34.16z"/>
<path class="st1" d="M33.03,77.13c-0.09-13.21-0.19-26.27-0.28-39.47c0.52,0.59,0.95,1.08,1.38,1.58
	c4.72,5.43,9.43,10.87,14.14,16.31c0.54,0.62,1.06,1.25,1.61,1.85c0.17,0.19,0.15,0.28-0.01,0.46c-3.05,3.47-6.08,6.95-9.12,10.43
	c-2.47,2.83-4.94,5.66-7.41,8.48C33.27,76.86,33.2,76.94,33.03,77.13z"/>
</svg>
